<?xml version="1.0" standalone="no"?>
<!DOCTYPE svg PUBLIC "-//W3C//DTD SVG 20010904//EN"
 "http://www.w3.org/TR/2001/REC-SVG-20010904/DTD/svg10.dtd">
<svg version="1.0" xmlns="http://www.w3.org/2000/svg"
 width="503.000000pt" height="503.000000pt" viewBox="0 0 503.000000 503.000000"
 preserveAspectRatio="xMidYMid meet">

<g transform="translate(0.000000,503.000000) scale(0.100000,-0.100000)"
fill="#d27842" stroke="none">
<path d="M964 3652 c-43 -35 -44 -43 -44 -500 0 -390 2 -453 19 -554 48 -275
173 -524 365 -726 296 -309 704 -466 1126 -431 348 28 641 168 890 426 108
111 187 224 255 364 l47 97 166 4 c150 4 175 7 251 33 391 133 574 577 387
941 -69 136 -174 239 -310 304 -133 63 -48 60 -1661 60 -1378 0 -1471 -2
-1491 -18z m2524 -609 c-4 -408 -4 -408 -31 -508 -33 -121 -127 -315 -197
-407 -73 -96 -225 -235 -317 -291 -187 -112 -361 -165 -574 -174 -587 -25
-1080 360 -1206 941 -12 54 -17 162 -20 459 l-5 387 1177 0 1176 0 -3 -407z
m457 392 c85 -23 149 -61 210 -127 167 -180 162 -455 -12 -625 -93 -91 -213
-132 -387 -133 -66 0 -68 1 -62 23 18 72 26 240 26 540 l0 337 83 0 c45 0 109
-7 142 -15z"/>
<path d="M964 1191 c-63 -38 -66 -134 -7 -181 25 -20 37 -20 1359 -20 l1332 0
31 26 c57 47 50 137 -13 175 -30 18 -77 19 -1351 19 -1284 0 -1321 -1 -1351
-19z"/>
</g>
</svg>
